<svg width="712" height="670" viewBox="0 0 712 670" fill="none" xmlns="http://www.w3.org/2000/svg">
<g id="undraw_feeling_proud_qne1 1" clip-path="url(#clip0_1_54)">
<path id="Vector" d="M516 380V538.505L546.971 581.713L549.328 585H671.531L674 380H516Z" fill="#E6E6E6"/>
<path id="Vector_2" opacity="0.1" d="M516.326 380.018V565.013L547.27 615.443L549.169 380.018H516.326Z" fill="black"/>
<path id="Vector_3" d="M222 375V530.413L191.029 572.778L188.672 576H66.4691L64 375H222Z" fill="#E6E6E6"/>
<path id="Vector_4" opacity="0.1" d="M221.566 375.084V560.08L190.622 610.51L188.723 375.084H221.566Z" fill="black"/>
<path id="Vector_5" d="M711.188 371.385V382.484H47.67V366.451L109.335 334.385H656.923L711.188 371.385Z" fill="#E6E6E6"/>
<path id="Vector_6" opacity="0.1" d="M711.188 371.385V382.484H47.67V366.451L711.188 371.385Z" fill="black"/>
<path id="Vector_7" d="M142.635 426.883H113.035L100.702 418.25H156.201L142.635 426.883Z" fill="#3F3D56"/>
<path id="Vector_8" d="M142.635 462.649H113.035L100.702 454.016H156.201L142.635 462.649Z" fill="#3F3D56"/>
<path id="Vector_9" d="M142.635 513.215H113.035L100.702 504.581H156.201L142.635 513.215Z" fill="#3F3D56"/>
<path id="Vector_10" d="M142.635 563.78H113.035L100.702 555.147H156.201L142.635 563.78Z" fill="#3F3D56"/>
<path id="Vector_11" d="M595.257 431.816H624.857L637.19 423.183H581.691L595.257 431.816Z" fill="#3F3D56"/>
<path id="Vector_12" d="M595.257 467.582H624.857L637.19 458.949H581.691L595.257 467.582Z" fill="#3F3D56"/>
<path id="Vector_13" d="M595.257 518.148H624.857L637.19 509.515H581.691L595.257 518.148Z" fill="#3F3D56"/>
<path id="Vector_14" d="M595.257 568.713H624.857L637.19 560.08H581.691L595.257 568.713Z" fill="#3F3D56"/>
<path id="Vector_15" d="M644.956 68H300.044C298.331 67.9998 296.635 68.3058 295.052 68.9006C293.469 69.4953 292.031 70.3671 290.82 71.4663C289.609 72.5654 288.648 73.8702 287.992 75.3064C287.337 76.7425 287 78.2817 287 79.836V290.659C287 292.213 287.337 293.753 287.992 295.189C288.648 296.625 289.609 297.93 290.82 299.029C292.031 300.128 293.469 301 295.052 301.594C296.635 302.189 298.331 302.495 300.044 302.495H430.976L426.07 330.913C426.07 330.913 398.037 344.426 417.748 344.823C437.459 345.221 530.318 344.823 530.318 344.823C530.318 344.823 548.277 344.823 519.806 330.515L515.192 302.495H644.956C646.669 302.495 648.365 302.189 649.948 301.594C651.531 301 652.969 300.128 654.18 299.029C655.391 297.93 656.352 296.625 657.007 295.189C657.663 293.753 658 292.213 658 290.659V79.836C658 78.2817 657.663 76.7425 657.007 75.3064C656.352 73.8702 655.391 72.5654 654.18 71.4663C652.969 70.3671 651.531 69.4953 649.948 68.9006C648.365 68.3058 646.669 67.9998 644.956 68Z" fill="#3F3D56"/>
<path id="Vector_16" d="M646 83H300V258H646V83Z" fill="#F2F2F2"/>
<path id="Vector_17" d="M472 77C473.105 77 474 76.1046 474 75C474 73.8954 473.105 73 472 73C470.895 73 470 73.8954 470 75C470 76.1046 470.895 77 472 77Z" fill="#F2F2F2"/>
<path id="Vector_18" d="M610.013 286.025C613.333 286.025 616.025 283.333 616.025 280.013C616.025 276.692 613.333 274 610.013 274C606.692 274 604 276.692 604 280.013C604 283.333 606.692 286.025 610.013 286.025Z" fill="#F2F2F2"/>
<path id="Vector_19" d="M582 359.956V363H355V360.565L355.312 359.956L360.907 349H577.359L582 359.956Z" fill="#3F3D56"/>
<path id="Vector_20" d="M651.797 356.896C651.487 358.222 650.316 359.621 647.67 360.944C638.177 365.69 618.873 359.678 618.873 359.678C618.873 359.678 604 357.146 604 350.501C604.418 350.215 604.853 349.956 605.304 349.725C609.295 347.614 622.529 342.403 645.994 349.946C647.723 350.489 649.267 351.501 650.455 352.869C650.981 353.386 651.377 354.021 651.61 354.721C651.843 355.421 651.907 356.167 651.797 356.896Z" fill="#3F3D56"/>
<path id="Vector_21" opacity="0.1" d="M546.97 354.854C535.35 359.306 524.992 359.639 514.363 352.256C510.343 349.284 505.476 347.681 500.477 347.683C504.468 345.572 517.702 340.361 541.167 347.904C542.896 348.447 544.44 349.458 545.628 350.827C546.154 351.344 546.55 351.979 546.783 352.679C547.016 353.379 547.08 354.124 546.97 354.854Z" fill="black"/>
<path id="Vector_22" d="M532.4 352.256C534.672 352.256 536.514 351.689 536.514 350.99C536.514 350.291 534.672 349.724 532.4 349.724C530.128 349.724 528.286 350.291 528.286 350.99C528.286 351.689 530.128 352.256 532.4 352.256Z" fill="#F2F2F2"/>
<path id="Vector_23" opacity="0.1" d="M481.452 357.952V361.117H311.202V358.585L311.436 357.952H481.452Z" fill="black"/>
<path id="Vector_24" d="M91.3544 1.20577C89.6208 1.18744 87.9226 1.6963 86.4848 2.66493C85.0846 3.77837 84.2829 5.611 83.4532 7.32236C80.2862 13.9406 75.7793 19.829 70.2179 24.6145C66.1639 28.0542 61.0043 32.3507 62.1492 38.0766C62.6717 39.9573 63.5074 41.7364 64.6212 43.3393C69.1371 51.0239 80.3466 56.4108 79.937 65.5772C83.3889 58.7327 77.9123 55.8618 81.3641 49.0174C83.008 45.7579 85.9996 41.9974 88.9591 43.7591C89.9501 44.3489 90.6542 45.4836 91.6783 45.9901C94.1219 47.1987 96.4288 44.3894 98.3716 42.3774C105.071 35.4396 115.371 36.3955 124.423 37.7611C128.696 38.4058 133.404 39.3159 136.177 43.1576C139.823 48.2088 133.857 54.3719 132.674 60.4619C132.578 60.9804 132.61 61.5142 132.767 62.0177C132.923 62.5212 133.199 62.9794 133.57 63.3531C133.942 63.7267 134.399 64.0048 134.902 64.1634C135.405 64.3221 135.938 64.3566 136.457 64.264C139.111 63.8093 142.262 63.3669 142.337 62.1826C145.708 62.062 149.801 61.3866 150.992 57.7819C151.333 56.3649 151.463 54.9052 151.377 53.4503C151.485 47.5303 153.598 41.9855 154.852 36.2689C156.106 30.5522 156.356 23.9398 153.21 19.1756C152.096 17.5953 150.757 16.1862 149.236 14.9927C132.302 0.797065 111.297 -0.24237 91.3544 1.20577Z" fill="#2F2E41"/>
<path id="Vector_25" d="M82.1377 74.9052C82.1377 74.9052 85.5911 103.684 72.9286 105.986C60.2661 108.288 84.4399 147.427 84.4399 147.427L141.997 154.334L128.183 108.288C128.183 108.288 118.974 104.835 124.73 81.812C130.485 58.7893 82.1377 74.9052 82.1377 74.9052Z" fill="#FCCF96"/>
<path id="Vector_26" d="M47.028 569.318L51.633 632.631H75.806L68.9 569.318H47.028Z" fill="#FCCF96"/>
<path id="Vector_27" d="M224.303 449.6L227.756 502.552L254.233 491.041L243.872 447.298L224.303 449.6Z" fill="#FCCF96"/>
<path id="Vector_28" d="M29.761 327.58C29.761 327.58 30.9121 394.345 37.819 416.217C44.7259 438.089 43.5747 439.24 42.4236 442.693C41.2724 446.147 40.1213 443.844 40.1213 449.6C40.1213 455.356 37.819 546.295 40.1213 554.353C42.4235 562.411 33.2145 576.225 40.1213 577.376C47.0281 578.527 79.2599 577.376 80.411 570.469C81.5622 563.562 71.202 561.26 75.8065 556.656C80.4111 552.051 87.3179 457.658 87.3179 457.658L103.434 392.043L133.363 357.509H196.676L216.245 433.484C216.245 433.484 208.187 455.356 213.943 455.356C219.699 455.356 254.233 462.263 254.233 436.938C254.233 411.613 242.721 336.789 240.419 334.486C238.117 332.184 241.57 324.126 238.117 320.673C234.663 317.219 194.374 293.046 179.409 288.441C164.444 283.836 143.451 278.356 143.451 278.356L29.761 327.58Z" fill="#2F2E41"/>
<path id="Vector_29" d="M254.233 481.832C254.233 481.832 236.966 476.076 228.908 493.343C220.85 510.61 224.303 515.215 224.303 515.215C224.303 515.215 250.779 524.424 255.384 519.819C257.387 517.816 263.748 517.12 270.296 516.973C280.269 516.749 282.923 502.64 273.504 499.354C273.223 499.256 272.939 499.171 272.651 499.099C263.442 496.797 254.233 481.832 254.233 481.832Z" fill="#2F2E41"/>
<path id="Vector_30" d="M111.391 93.9121C130.415 92.5524 144.735 76.0281 143.375 57.004C142.016 37.9799 125.491 23.66 106.467 25.0196C87.4431 26.3792 73.1232 42.9035 74.4828 61.9277C75.8425 80.9518 92.3668 95.2717 111.391 93.9121Z" fill="#FCCF96"/>
<path id="Vector_31" d="M63.144 120.375C63.144 120.375 119.55 131.886 133.363 113.468C147.177 95.0501 152.933 165.269 152.933 165.269L159.839 238.942L149.479 279.232C149.479 279.232 95.3758 322.975 78.1087 326.428C60.8417 329.882 34.3655 332.184 34.3655 332.184C34.3655 332.184 42.4236 204.408 42.4236 202.106C42.4236 199.803 63.144 120.375 63.144 120.375Z" fill="#F9F9F9"/>
<path id="Vector_32" d="M80.2983 98.7859C80.2983 98.7859 67.7485 91.5967 64.2951 98.5035C60.8417 105.41 28.6099 122.677 25.1565 122.677C21.7031 122.677 32.0633 218.222 27.4587 229.733C22.8542 241.244 0.982611 325.277 13.6451 332.184C26.3076 339.091 17.0985 325.277 29.761 342.544C42.4235 359.811 104.585 359.811 108.038 352.905C111.492 345.998 80.411 294.197 86.1667 245.849C91.9224 197.501 101.131 130.735 93.0735 121.526C85.0156 112.317 80.2983 98.7859 80.2983 98.7859Z" fill="#2F2E41"/>
<path id="Vector_33" d="M121.852 106.561L123.455 101.043C123.455 101.043 171.351 116.922 173.653 127.282C175.955 137.642 174.804 210.164 166.746 215.919C158.688 221.675 147.177 230.884 155.235 244.698C163.293 258.511 172.502 273.476 179.409 274.627C186.316 275.778 198.978 283.836 195.525 291.894C192.071 299.952 150.63 284.988 150.63 284.988C150.63 284.988 123.003 264.267 124.154 232.035C125.305 199.803 121.852 106.561 121.852 106.561Z" fill="#2F2E41"/>
<path id="Vector_34" d="M162.142 242.396L134.514 294.197C134.514 294.197 94.2246 335.638 117.247 340.242C140.27 344.847 152.933 302.255 152.933 302.255L182.862 259.663L162.142 242.396Z" fill="#FCCF96"/>
<path id="Vector_35" d="M93.6765 10.0986C92.2808 10.095 90.9093 10.4641 89.704 11.1679C88.6334 12.0736 87.7787 13.207 87.2023 14.4854C84.4689 19.311 80.7566 23.5117 76.3036 26.8177C72.9794 29.2817 68.7493 32.36 69.637 36.4015C70.0583 37.7477 70.7267 39.0037 71.6079 40.1051C75.2381 45.5624 76.992 52.0537 76.604 58.5967L85.1849 43.9938C86.5471 41.6758 89.0094 38.993 91.4036 40.2165C92.2052 40.6262 92.7693 41.4234 93.5985 41.7738C95.5772 42.6101 97.4753 40.6054 99.0711 39.1674C104.574 34.2089 112.946 34.8065 120.299 35.7035C123.77 36.1269 127.593 36.7347 129.82 39.431C133.52 43.9117 130.496 50.9843 132.849 56.298C133.371 55.874 133.802 55.3496 134.118 54.7558C134.433 54.162 134.626 53.5109 134.685 52.8411C137.429 52.73 140.764 52.2212 141.76 49.6623C142.048 48.6668 142.165 47.6299 142.106 46.5954C142.24 42.4071 144.001 38.469 145.064 34.4159C146.128 30.3627 146.382 25.6835 143.859 22.3377C142.943 21.2084 141.864 20.2214 140.658 19.4092C126.99 9.49724 109.911 8.92221 93.6765 10.0986Z" fill="#2F2E41"/>
<path id="Vector_36" d="M162.142 122.677L172.867 125.524C172.867 125.524 197.827 189.443 192.071 233.186C186.316 276.93 182.862 267.721 182.862 267.721C182.862 267.721 173.653 247 152.933 251.605L162.142 122.677Z" fill="#2F2E41"/>
<path id="Vector_37" d="M48.6229 624.263C45.847 628.036 46.4035 633.428 43.9446 637.414C41.8132 640.869 37.7962 642.681 35.1302 645.743C34.2795 646.76 33.5212 647.851 32.8641 649.003C30.391 653.145 28.3808 658.454 30.8165 662.619C32.7758 665.969 36.8943 667.279 40.6715 668.171C45.4455 669.299 50.4058 670.202 55.235 669.34C60.0642 668.478 64.7838 665.521 66.5057 660.927C66.8441 659.772 67.2464 658.637 67.7108 657.527C70.3282 652.374 78.5383 652.318 81.217 647.197C83.0917 643.613 81.3684 639.28 79.6459 635.621L74.3848 624.444C72.6389 620.735 65.5611 622.868 61.8714 621.979C57.0591 620.82 52.0848 619.543 48.6229 624.263Z" fill="#2F2E41"/>
<path id="Vector_38" d="M5.59601 270.35L61.553 339.667C61.553 339.667 95.3158 374.293 102.656 356.152C109.996 338.011 65.755 313.756 65.755 313.756L28.7871 259.791L5.59601 270.35Z" fill="#FCCF96"/>
<path id="Vector_39" d="M34.3655 124.98L25.1564 122.677C25.1564 122.677 6.73827 128.433 2.13372 152.607C-2.47081 176.781 0.982583 273.476 6.73826 274.627C12.4939 275.778 35.1655 257.791 38.7945 261.604C42.4235 265.418 30.9121 245.849 34.3655 235.489C37.8189 225.128 34.3655 124.98 34.3655 124.98Z" fill="#2F2E41"/>
<g id="Group 14">
<path id="text2" d="M343.58 156.136C342.966 156.136 342.438 155.991 341.994 155.702C341.551 155.412 341.21 155.013 340.972 154.504C340.733 153.996 340.614 153.415 340.614 152.761C340.614 152.097 340.736 151.51 340.98 151.001C341.227 150.49 341.571 150.091 342.011 149.804C342.455 149.514 342.972 149.369 343.562 149.369C344.023 149.369 344.438 149.455 344.807 149.625C345.176 149.795 345.479 150.034 345.714 150.341C345.95 150.648 346.097 151.006 346.153 151.415H345.148C345.071 151.116 344.901 150.852 344.636 150.622C344.375 150.389 344.023 150.273 343.58 150.273C343.188 150.273 342.844 150.375 342.548 150.58C342.256 150.781 342.027 151.067 341.862 151.436C341.7 151.803 341.619 152.233 341.619 152.727C341.619 153.233 341.699 153.673 341.858 154.048C342.02 154.423 342.247 154.714 342.54 154.922C342.835 155.129 343.182 155.233 343.58 155.233C343.841 155.233 344.078 155.188 344.291 155.097C344.504 155.006 344.685 154.875 344.832 154.705C344.98 154.534 345.085 154.33 345.148 154.091H346.153C346.097 154.477 345.956 154.825 345.732 155.135C345.51 155.442 345.216 155.686 344.849 155.868C344.486 156.047 344.063 156.136 343.58 156.136ZM350.283 156.136C349.692 156.136 349.173 155.996 348.727 155.714C348.284 155.433 347.938 155.04 347.688 154.534C347.44 154.028 347.317 153.437 347.317 152.761C347.317 152.08 347.44 151.484 347.688 150.976C347.938 150.467 348.284 150.072 348.727 149.791C349.173 149.51 349.692 149.369 350.283 149.369C350.874 149.369 351.391 149.51 351.834 149.791C352.28 150.072 352.626 150.467 352.874 150.976C353.124 151.484 353.249 152.08 353.249 152.761C353.249 153.437 353.124 154.028 352.874 154.534C352.626 155.04 352.28 155.433 351.834 155.714C351.391 155.996 350.874 156.136 350.283 156.136ZM350.283 155.233C350.732 155.233 351.101 155.118 351.391 154.888C351.68 154.658 351.895 154.355 352.034 153.98C352.173 153.605 352.243 153.199 352.243 152.761C352.243 152.324 352.173 151.916 352.034 151.538C351.895 151.161 351.68 150.855 351.391 150.622C351.101 150.389 350.732 150.273 350.283 150.273C349.834 150.273 349.464 150.389 349.175 150.622C348.885 150.855 348.67 151.161 348.531 151.538C348.392 151.916 348.322 152.324 348.322 152.761C348.322 153.199 348.392 153.605 348.531 153.98C348.67 154.355 348.885 154.658 349.175 154.888C349.464 155.118 349.834 155.233 350.283 155.233ZM355.789 152.062V156H354.784V149.455H355.755V150.477H355.841C355.994 150.145 356.227 149.878 356.539 149.676C356.852 149.472 357.255 149.369 357.75 149.369C358.193 149.369 358.581 149.46 358.913 149.642C359.245 149.821 359.504 150.094 359.689 150.46C359.873 150.824 359.966 151.284 359.966 151.841V156H358.96V151.909C358.96 151.395 358.826 150.994 358.559 150.707C358.292 150.418 357.926 150.273 357.46 150.273C357.139 150.273 356.852 150.342 356.599 150.482C356.349 150.621 356.152 150.824 356.007 151.091C355.862 151.358 355.789 151.682 355.789 152.062ZM366.44 150.92L365.536 151.176C365.479 151.026 365.396 150.879 365.285 150.737C365.177 150.592 365.029 150.473 364.842 150.379C364.654 150.286 364.414 150.239 364.121 150.239C363.721 150.239 363.387 150.331 363.12 150.516C362.856 150.697 362.724 150.929 362.724 151.21C362.724 151.46 362.815 151.658 362.996 151.803C363.178 151.947 363.462 152.068 363.849 152.165L364.82 152.403C365.406 152.545 365.842 152.763 366.129 153.055C366.415 153.345 366.559 153.719 366.559 154.176C366.559 154.551 366.451 154.886 366.235 155.182C366.022 155.477 365.724 155.71 365.34 155.881C364.957 156.051 364.511 156.136 364.002 156.136C363.335 156.136 362.782 155.991 362.344 155.702C361.907 155.412 361.63 154.989 361.513 154.432L362.468 154.193C362.559 154.545 362.731 154.81 362.984 154.986C363.239 155.162 363.573 155.25 363.985 155.25C364.454 155.25 364.826 155.151 365.102 154.952C365.38 154.75 365.519 154.509 365.519 154.227C365.519 154 365.44 153.81 365.281 153.656C365.121 153.5 364.877 153.384 364.548 153.307L363.457 153.051C362.857 152.909 362.417 152.689 362.136 152.391C361.857 152.089 361.718 151.713 361.718 151.261C361.718 150.892 361.822 150.565 362.029 150.281C362.239 149.997 362.525 149.774 362.886 149.612C363.249 149.45 363.661 149.369 364.121 149.369C364.769 149.369 365.278 149.511 365.647 149.795C366.019 150.08 366.283 150.455 366.44 150.92ZM370.732 156.136C370.141 156.136 369.623 155.996 369.176 155.714C368.733 155.433 368.387 155.04 368.137 154.534C367.89 154.028 367.766 153.437 367.766 152.761C367.766 152.08 367.89 151.484 368.137 150.976C368.387 150.467 368.733 150.072 369.176 149.791C369.623 149.51 370.141 149.369 370.732 149.369C371.323 149.369 371.84 149.51 372.283 149.791C372.729 150.072 373.076 150.467 373.323 150.976C373.573 151.484 373.698 152.08 373.698 152.761C373.698 153.437 373.573 154.028 373.323 154.534C373.076 155.04 372.729 155.433 372.283 155.714C371.84 155.996 371.323 156.136 370.732 156.136ZM370.732 155.233C371.181 155.233 371.55 155.118 371.84 154.888C372.13 154.658 372.344 154.355 372.483 153.98C372.623 153.605 372.692 153.199 372.692 152.761C372.692 152.324 372.623 151.916 372.483 151.538C372.344 151.161 372.13 150.855 371.84 150.622C371.55 150.389 371.181 150.273 370.732 150.273C370.283 150.273 369.914 150.389 369.624 150.622C369.334 150.855 369.12 151.161 368.98 151.538C368.841 151.916 368.772 152.324 368.772 152.761C368.772 153.199 368.841 153.605 368.98 153.98C369.12 154.355 369.334 154.658 369.624 154.888C369.914 155.118 370.283 155.233 370.732 155.233ZM376.239 147.273V156H375.233V147.273H376.239ZM380.825 156.136C380.194 156.136 379.65 155.997 379.193 155.719C378.738 155.438 378.387 155.045 378.14 154.543C377.896 154.037 377.774 153.449 377.774 152.778C377.774 152.108 377.896 151.517 378.14 151.006C378.387 150.491 378.731 150.091 379.172 149.804C379.615 149.514 380.132 149.369 380.723 149.369C381.064 149.369 381.4 149.426 381.733 149.54C382.065 149.653 382.368 149.838 382.64 150.094C382.913 150.347 383.13 150.682 383.292 151.099C383.454 151.517 383.535 152.031 383.535 152.642V153.068H378.49V152.199H382.512C382.512 151.83 382.439 151.5 382.291 151.21C382.146 150.92 381.939 150.692 381.669 150.524C381.402 150.357 381.086 150.273 380.723 150.273C380.322 150.273 379.975 150.372 379.683 150.571C379.393 150.767 379.17 151.023 379.014 151.338C378.858 151.653 378.779 151.991 378.779 152.352V152.932C378.779 153.426 378.865 153.845 379.035 154.189C379.208 154.53 379.449 154.79 379.755 154.969C380.062 155.145 380.419 155.233 380.825 155.233C381.089 155.233 381.328 155.196 381.541 155.122C381.757 155.045 381.943 154.932 382.099 154.781C382.255 154.628 382.376 154.437 382.461 154.21L383.433 154.483C383.331 154.812 383.159 155.102 382.917 155.352C382.676 155.599 382.377 155.793 382.022 155.932C381.667 156.068 381.268 156.136 380.825 156.136ZM385.798 156.068C385.588 156.068 385.407 155.993 385.257 155.842C385.106 155.692 385.031 155.511 385.031 155.301C385.031 155.091 385.106 154.911 385.257 154.76C385.407 154.609 385.588 154.534 385.798 154.534C386.008 154.534 386.189 154.609 386.339 154.76C386.49 154.911 386.565 155.091 386.565 155.301C386.565 155.44 386.529 155.568 386.458 155.685C386.39 155.801 386.298 155.895 386.181 155.966C386.068 156.034 385.94 156.068 385.798 156.068ZM389.375 147.273V156H388.37V147.273H389.375ZM393.876 156.136C393.286 156.136 392.767 155.996 392.321 155.714C391.878 155.433 391.531 155.04 391.281 154.534C391.034 154.028 390.911 153.437 390.911 152.761C390.911 152.08 391.034 151.484 391.281 150.976C391.531 150.467 391.878 150.072 392.321 149.791C392.767 149.51 393.286 149.369 393.876 149.369C394.467 149.369 394.984 149.51 395.428 149.791C395.874 150.072 396.22 150.467 396.467 150.976C396.717 151.484 396.842 152.08 396.842 152.761C396.842 153.437 396.717 154.028 396.467 154.534C396.22 155.04 395.874 155.433 395.428 155.714C394.984 155.996 394.467 156.136 393.876 156.136ZM393.876 155.233C394.325 155.233 394.695 155.118 394.984 154.888C395.274 154.658 395.489 154.355 395.628 153.98C395.767 153.605 395.837 153.199 395.837 152.761C395.837 152.324 395.767 151.916 395.628 151.538C395.489 151.161 395.274 150.855 394.984 150.622C394.695 150.389 394.325 150.273 393.876 150.273C393.428 150.273 393.058 150.389 392.768 150.622C392.479 150.855 392.264 151.161 392.125 151.538C391.986 151.916 391.916 152.324 391.916 152.761C391.916 153.199 391.986 153.605 392.125 153.98C392.264 154.355 392.479 154.658 392.768 154.888C393.058 155.118 393.428 155.233 393.876 155.233ZM401.02 158.591C400.534 158.591 400.116 158.528 399.767 158.403C399.417 158.281 399.126 158.119 398.893 157.918C398.663 157.719 398.48 157.506 398.343 157.278L399.145 156.716C399.235 156.835 399.35 156.972 399.49 157.125C399.629 157.281 399.819 157.416 400.061 157.53C400.305 157.646 400.625 157.705 401.02 157.705C401.548 157.705 401.984 157.577 402.328 157.321C402.672 157.065 402.843 156.665 402.843 156.119V154.79H402.758C402.684 154.909 402.579 155.057 402.443 155.233C402.309 155.406 402.116 155.561 401.863 155.697C401.613 155.831 401.275 155.898 400.849 155.898C400.321 155.898 399.846 155.773 399.426 155.523C399.008 155.273 398.677 154.909 398.433 154.432C398.191 153.955 398.071 153.375 398.071 152.693C398.071 152.023 398.189 151.439 398.424 150.942C398.66 150.442 398.988 150.055 399.409 149.783C399.829 149.507 400.315 149.369 400.866 149.369C401.292 149.369 401.63 149.44 401.88 149.582C402.133 149.722 402.326 149.881 402.46 150.06C402.596 150.236 402.701 150.381 402.775 150.494H402.877V149.455H403.849V156.188C403.849 156.75 403.721 157.207 403.466 157.56C403.213 157.915 402.872 158.175 402.443 158.339C402.017 158.507 401.542 158.591 401.02 158.591ZM400.985 154.994C401.389 154.994 401.73 154.902 402.008 154.717C402.287 154.533 402.498 154.267 402.643 153.92C402.788 153.574 402.86 153.159 402.86 152.676C402.86 152.205 402.789 151.788 402.647 151.428C402.505 151.067 402.295 150.784 402.017 150.58C401.738 150.375 401.395 150.273 400.985 150.273C400.559 150.273 400.204 150.381 399.92 150.597C399.639 150.812 399.427 151.102 399.285 151.466C399.146 151.83 399.076 152.233 399.076 152.676C399.076 153.131 399.147 153.533 399.289 153.882C399.434 154.229 399.647 154.501 399.929 154.7C400.213 154.896 400.565 154.994 400.985 154.994ZM406.048 152.318C406.048 151.244 406.187 150.257 406.466 149.357C406.747 148.453 407.147 147.622 407.667 146.864H408.554C408.349 147.145 408.157 147.491 407.978 147.903C407.802 148.312 407.647 148.763 407.514 149.254C407.38 149.743 407.275 150.249 407.199 150.771C407.125 151.294 407.088 151.81 407.088 152.318C407.088 152.994 407.153 153.68 407.284 154.376C407.414 155.072 407.591 155.719 407.812 156.315C408.034 156.912 408.281 157.398 408.554 157.773H407.667C407.147 157.014 406.747 156.185 406.466 155.284C406.187 154.381 406.048 153.392 406.048 152.318ZM409.697 150V149.233C409.697 149 409.738 148.753 409.82 148.491C409.906 148.227 410.028 147.973 410.187 147.729C410.349 147.482 410.543 147.267 410.771 147.085L411.316 147.528C411.137 147.784 410.981 148.051 410.847 148.33C410.717 148.605 410.651 148.901 410.651 149.216V150H409.697ZM411.879 150V149.233C411.879 149 411.92 148.753 412.002 148.491C412.087 148.227 412.21 147.973 412.369 147.729C412.531 147.482 412.725 147.267 412.952 147.085L413.498 147.528C413.319 147.784 413.163 148.051 413.029 148.33C412.898 148.605 412.833 148.901 412.833 149.216V150H411.879ZM416.33 156L413.943 147.273H415.017L416.841 154.381H416.926L418.784 147.273H419.977L421.835 154.381H421.92L423.744 147.273H424.818L422.432 156H421.341L419.415 149.045H419.347L417.42 156H416.33ZM428.134 156.136C427.503 156.136 426.959 155.997 426.501 155.719C426.047 155.438 425.696 155.045 425.449 154.543C425.205 154.037 425.082 153.449 425.082 152.778C425.082 152.108 425.205 151.517 425.449 151.006C425.696 150.491 426.04 150.091 426.48 149.804C426.923 149.514 427.44 149.369 428.031 149.369C428.372 149.369 428.709 149.426 429.041 149.54C429.374 149.653 429.676 149.838 429.949 150.094C430.222 150.347 430.439 150.682 430.601 151.099C430.763 151.517 430.844 152.031 430.844 152.642V153.068H425.798V152.199H429.821C429.821 151.83 429.747 151.5 429.599 151.21C429.455 150.92 429.247 150.692 428.977 150.524C428.71 150.357 428.395 150.273 428.031 150.273C427.631 150.273 427.284 150.372 426.991 150.571C426.702 150.767 426.479 151.023 426.322 151.338C426.166 151.653 426.088 151.991 426.088 152.352V152.932C426.088 153.426 426.173 153.845 426.344 154.189C426.517 154.53 426.757 154.79 427.064 154.969C427.371 155.145 427.727 155.233 428.134 155.233C428.398 155.233 428.636 155.196 428.849 155.122C429.065 155.045 429.251 154.932 429.408 154.781C429.564 154.628 429.685 154.437 429.77 154.21L430.741 154.483C430.639 154.812 430.467 155.102 430.226 155.352C429.984 155.599 429.686 155.793 429.331 155.932C428.976 156.068 428.577 156.136 428.134 156.136ZM433.379 147.273V156H432.374V147.273H433.379ZM437.88 156.136C437.267 156.136 436.738 155.991 436.295 155.702C435.852 155.412 435.511 155.013 435.272 154.504C435.034 153.996 434.914 153.415 434.914 152.761C434.914 152.097 435.037 151.51 435.281 151.001C435.528 150.49 435.872 150.091 436.312 149.804C436.755 149.514 437.272 149.369 437.863 149.369C438.324 149.369 438.738 149.455 439.108 149.625C439.477 149.795 439.779 150.034 440.015 150.341C440.251 150.648 440.397 151.006 440.454 151.415H439.449C439.372 151.116 439.201 150.852 438.937 150.622C438.676 150.389 438.324 150.273 437.88 150.273C437.488 150.273 437.145 150.375 436.849 150.58C436.556 150.781 436.328 151.067 436.163 151.436C436.001 151.803 435.92 152.233 435.92 152.727C435.92 153.233 436 153.673 436.159 154.048C436.321 154.423 436.548 154.714 436.841 154.922C437.136 155.129 437.483 155.233 437.88 155.233C438.142 155.233 438.379 155.188 438.592 155.097C438.805 155.006 438.985 154.875 439.133 154.705C439.281 154.534 439.386 154.33 439.449 154.091H440.454C440.397 154.477 440.257 154.825 440.032 155.135C439.811 155.442 439.517 155.686 439.15 155.868C438.787 156.047 438.363 156.136 437.88 156.136ZM444.583 156.136C443.993 156.136 443.474 155.996 443.028 155.714C442.585 155.433 442.238 155.04 441.988 154.534C441.741 154.028 441.618 153.437 441.618 152.761C441.618 152.08 441.741 151.484 441.988 150.976C442.238 150.467 442.585 150.072 443.028 149.791C443.474 149.51 443.993 149.369 444.583 149.369C445.174 149.369 445.691 149.51 446.135 149.791C446.581 150.072 446.927 150.467 447.174 150.976C447.424 151.484 447.549 152.08 447.549 152.761C447.549 153.437 447.424 154.028 447.174 154.534C446.927 155.04 446.581 155.433 446.135 155.714C445.691 155.996 445.174 156.136 444.583 156.136ZM444.583 155.233C445.032 155.233 445.402 155.118 445.691 154.888C445.981 154.658 446.196 154.355 446.335 153.98C446.474 153.605 446.544 153.199 446.544 152.761C446.544 152.324 446.474 151.916 446.335 151.538C446.196 151.161 445.981 150.855 445.691 150.622C445.402 150.389 445.032 150.273 444.583 150.273C444.135 150.273 443.765 150.389 443.475 150.622C443.186 150.855 442.971 151.161 442.832 151.538C442.693 151.916 442.623 152.324 442.623 152.761C442.623 153.199 442.693 153.605 442.832 153.98C442.971 154.355 443.186 154.658 443.475 154.888C443.765 155.118 444.135 155.233 444.583 155.233ZM449.085 156V149.455H450.056V150.477H450.141C450.278 150.128 450.498 149.857 450.802 149.663C451.106 149.467 451.471 149.369 451.897 149.369C452.329 149.369 452.688 149.467 452.975 149.663C453.265 149.857 453.491 150.128 453.653 150.477H453.721C453.888 150.139 454.14 149.871 454.475 149.672C454.81 149.47 455.212 149.369 455.681 149.369C456.266 149.369 456.745 149.553 457.117 149.919C457.489 150.283 457.675 150.849 457.675 151.619V156H456.67V151.619C456.67 151.136 456.538 150.791 456.273 150.584C456.009 150.376 455.698 150.273 455.34 150.273C454.88 150.273 454.523 150.412 454.271 150.69C454.018 150.966 453.891 151.315 453.891 151.739V156H452.869V151.517C452.869 151.145 452.748 150.845 452.506 150.618C452.265 150.388 451.954 150.273 451.573 150.273C451.312 150.273 451.067 150.342 450.84 150.482C450.616 150.621 450.434 150.814 450.295 151.061C450.158 151.305 450.09 151.588 450.09 151.909V156H449.085ZM462.259 156.136C461.628 156.136 461.084 155.997 460.626 155.719C460.172 155.438 459.821 155.045 459.574 154.543C459.33 154.037 459.207 153.449 459.207 152.778C459.207 152.108 459.33 151.517 459.574 151.006C459.821 150.491 460.165 150.091 460.605 149.804C461.048 149.514 461.565 149.369 462.156 149.369C462.497 149.369 462.834 149.426 463.166 149.54C463.499 149.653 463.801 149.838 464.074 150.094C464.347 150.347 464.564 150.682 464.726 151.099C464.888 151.517 464.969 152.031 464.969 152.642V153.068H459.923V152.199H463.946C463.946 151.83 463.872 151.5 463.724 151.21C463.58 150.92 463.372 150.692 463.102 150.524C462.835 150.357 462.52 150.273 462.156 150.273C461.756 150.273 461.409 150.372 461.116 150.571C460.827 150.767 460.604 151.023 460.447 151.338C460.291 151.653 460.213 151.991 460.213 152.352V152.932C460.213 153.426 460.298 153.845 460.469 154.189C460.642 154.53 460.882 154.79 461.189 154.969C461.496 155.145 461.852 155.233 462.259 155.233C462.523 155.233 462.761 155.196 462.974 155.122C463.19 155.045 463.376 154.932 463.533 154.781C463.689 154.628 463.81 154.437 463.895 154.21L464.866 154.483C464.764 154.812 464.592 155.102 464.351 155.352C464.109 155.599 463.811 155.793 463.456 155.932C463.101 156.068 462.702 156.136 462.259 156.136ZM472.72 149.455V150.307H469.328V149.455H472.72ZM470.317 147.886H471.322V154.125C471.322 154.409 471.364 154.622 471.446 154.764C471.531 154.903 471.639 154.997 471.77 155.045C471.903 155.091 472.044 155.114 472.192 155.114C472.303 155.114 472.393 155.108 472.464 155.097C472.536 155.082 472.592 155.071 472.635 155.062L472.839 155.966C472.771 155.991 472.676 156.017 472.554 156.043C472.432 156.071 472.277 156.085 472.089 156.085C471.805 156.085 471.527 156.024 471.254 155.902C470.984 155.78 470.76 155.594 470.581 155.344C470.405 155.094 470.317 154.778 470.317 154.398V147.886ZM476.822 156.136C476.231 156.136 475.712 155.996 475.266 155.714C474.823 155.433 474.477 155.04 474.227 154.534C473.979 154.028 473.856 153.437 473.856 152.761C473.856 152.08 473.979 151.484 474.227 150.976C474.477 150.467 474.823 150.072 475.266 149.791C475.712 149.51 476.231 149.369 476.822 149.369C477.413 149.369 477.93 149.51 478.373 149.791C478.819 150.072 479.165 150.467 479.413 150.976C479.663 151.484 479.788 152.08 479.788 152.761C479.788 153.437 479.663 154.028 479.413 154.534C479.165 155.04 478.819 155.433 478.373 155.714C477.93 155.996 477.413 156.136 476.822 156.136ZM476.822 155.233C477.271 155.233 477.64 155.118 477.93 154.888C478.219 154.658 478.434 154.355 478.573 153.98C478.712 153.605 478.782 153.199 478.782 152.761C478.782 152.324 478.712 151.916 478.573 151.538C478.434 151.161 478.219 150.855 477.93 150.622C477.64 150.389 477.271 150.273 476.822 150.273C476.373 150.273 476.004 150.389 475.714 150.622C475.424 150.855 475.21 151.161 475.07 151.538C474.931 151.916 474.862 152.324 474.862 152.761C474.862 153.199 474.931 153.605 475.07 153.98C475.21 154.355 475.424 154.658 475.714 154.888C476.004 155.118 476.373 155.233 476.822 155.233ZM487.357 156.136C486.766 156.136 486.248 155.996 485.801 155.714C485.358 155.433 485.012 155.04 484.762 154.534C484.515 154.028 484.391 153.437 484.391 152.761C484.391 152.08 484.515 151.484 484.762 150.976C485.012 150.467 485.358 150.072 485.801 149.791C486.248 149.51 486.766 149.369 487.357 149.369C487.948 149.369 488.465 149.51 488.908 149.791C489.354 150.072 489.701 150.467 489.948 150.976C490.198 151.484 490.323 152.08 490.323 152.761C490.323 153.437 490.198 154.028 489.948 154.534C489.701 155.04 489.354 155.433 488.908 155.714C488.465 155.996 487.948 156.136 487.357 156.136ZM487.357 155.233C487.806 155.233 488.175 155.118 488.465 154.888C488.755 154.658 488.969 154.355 489.108 153.98C489.248 153.605 489.317 153.199 489.317 152.761C489.317 152.324 489.248 151.916 489.108 151.538C488.969 151.161 488.755 150.855 488.465 150.622C488.175 150.389 487.806 150.273 487.357 150.273C486.908 150.273 486.539 150.389 486.249 150.622C485.959 150.855 485.745 151.161 485.605 151.538C485.466 151.916 485.397 152.324 485.397 152.761C485.397 153.199 485.466 153.605 485.605 153.98C485.745 154.355 485.959 154.658 486.249 154.888C486.539 155.118 486.908 155.233 487.357 155.233ZM495.983 153.324V149.455H496.989V156H495.983V154.892H495.915C495.761 155.224 495.523 155.507 495.199 155.74C494.875 155.97 494.466 156.085 493.972 156.085C493.562 156.085 493.199 155.996 492.881 155.817C492.563 155.635 492.313 155.362 492.131 154.999C491.949 154.632 491.858 154.17 491.858 153.614V149.455H492.864V153.545C492.864 154.023 492.997 154.403 493.264 154.688C493.534 154.972 493.878 155.114 494.295 155.114C494.545 155.114 494.8 155.05 495.058 154.922C495.32 154.794 495.538 154.598 495.714 154.334C495.893 154.07 495.983 153.733 495.983 153.324ZM498.831 156V149.455H499.802V150.443H499.87C499.99 150.119 500.206 149.857 500.518 149.655C500.831 149.453 501.183 149.352 501.575 149.352C501.649 149.352 501.741 149.354 501.852 149.357C501.963 149.359 502.047 149.364 502.103 149.369V150.392C502.069 150.384 501.991 150.371 501.869 150.354C501.75 150.334 501.623 150.324 501.49 150.324C501.172 150.324 500.887 150.391 500.637 150.524C500.39 150.655 500.194 150.837 500.049 151.07C499.907 151.3 499.836 151.562 499.836 151.858V156H498.831ZM508.153 156L506.159 149.455H507.216L508.631 154.466H508.699L510.097 149.455H511.17L512.551 154.449H512.619L514.034 149.455H515.091L513.097 156H512.108L510.676 150.972H510.574L509.142 156H508.153ZM518.942 156.136C518.311 156.136 517.767 155.997 517.31 155.719C516.855 155.438 516.505 155.045 516.257 154.543C516.013 154.037 515.891 153.449 515.891 152.778C515.891 152.108 516.013 151.517 516.257 151.006C516.505 150.491 516.848 150.091 517.289 149.804C517.732 149.514 518.249 149.369 518.84 149.369C519.181 149.369 519.517 149.426 519.85 149.54C520.182 149.653 520.485 149.838 520.757 150.094C521.03 150.347 521.248 150.682 521.409 151.099C521.571 151.517 521.652 152.031 521.652 152.642V153.068H516.607V152.199H520.63C520.63 151.83 520.556 151.5 520.408 151.21C520.263 150.92 520.056 150.692 519.786 150.524C519.519 150.357 519.203 150.273 518.84 150.273C518.439 150.273 518.093 150.372 517.8 150.571C517.51 150.767 517.287 151.023 517.131 151.338C516.975 151.653 516.897 151.991 516.897 152.352V152.932C516.897 153.426 516.982 153.845 517.152 154.189C517.326 154.53 517.566 154.79 517.873 154.969C518.179 155.145 518.536 155.233 518.942 155.233C519.206 155.233 519.445 155.196 519.658 155.122C519.874 155.045 520.06 154.932 520.216 154.781C520.373 154.628 520.493 154.437 520.578 154.21L521.55 154.483C521.448 154.812 521.276 155.102 521.034 155.352C520.793 155.599 520.495 155.793 520.14 155.932C519.784 156.068 519.385 156.136 518.942 156.136ZM523.319 156V147.273H524.324V150.494H524.409C524.483 150.381 524.586 150.236 524.716 150.06C524.85 149.881 525.04 149.722 525.287 149.582C525.537 149.44 525.875 149.369 526.301 149.369C526.853 149.369 527.338 149.507 527.759 149.783C528.179 150.058 528.507 150.449 528.743 150.955C528.979 151.46 529.097 152.057 529.097 152.744C529.097 153.438 528.979 154.038 528.743 154.547C528.507 155.053 528.181 155.445 527.763 155.723C527.346 155.999 526.864 156.136 526.319 156.136C525.898 156.136 525.561 156.067 525.309 155.928C525.056 155.786 524.861 155.625 524.725 155.446C524.588 155.264 524.483 155.114 524.409 154.994H524.29V156H523.319ZM524.307 152.727C524.307 153.222 524.38 153.658 524.525 154.036C524.669 154.411 524.881 154.705 525.159 154.918C525.438 155.128 525.779 155.233 526.182 155.233C526.603 155.233 526.953 155.122 527.235 154.901C527.519 154.676 527.732 154.375 527.874 153.997C528.019 153.616 528.091 153.193 528.091 152.727C528.091 152.267 528.02 151.852 527.878 151.483C527.739 151.111 527.527 150.817 527.243 150.601C526.962 150.382 526.608 150.273 526.182 150.273C525.773 150.273 525.429 150.376 525.151 150.584C524.873 150.788 524.662 151.075 524.52 151.445C524.378 151.811 524.307 152.239 524.307 152.727ZM535.272 150.92L534.368 151.176C534.311 151.026 534.228 150.879 534.117 150.737C534.009 150.592 533.861 150.473 533.674 150.379C533.486 150.286 533.246 150.239 532.953 150.239C532.553 150.239 532.219 150.331 531.952 150.516C531.688 150.697 531.556 150.929 531.556 151.21C531.556 151.46 531.647 151.658 531.828 151.803C532.01 151.947 532.294 152.068 532.681 152.165L533.652 152.403C534.238 152.545 534.674 152.763 534.961 153.055C535.248 153.345 535.391 153.719 535.391 154.176C535.391 154.551 535.283 154.886 535.067 155.182C534.854 155.477 534.556 155.71 534.172 155.881C533.789 156.051 533.343 156.136 532.834 156.136C532.167 156.136 531.614 155.991 531.176 155.702C530.739 155.412 530.462 154.989 530.346 154.432L531.3 154.193C531.391 154.545 531.563 154.81 531.816 154.986C532.071 155.162 532.405 155.25 532.817 155.25C533.286 155.25 533.658 155.151 533.934 154.952C534.212 154.75 534.351 154.509 534.351 154.227C534.351 154 534.272 153.81 534.113 153.656C533.953 153.5 533.709 153.384 533.38 153.307L532.289 153.051C531.689 152.909 531.249 152.689 530.968 152.391C530.689 152.089 530.55 151.713 530.55 151.261C530.55 150.892 530.654 150.565 530.861 150.281C531.071 149.997 531.357 149.774 531.718 149.612C532.081 149.45 532.493 149.369 532.953 149.369C533.601 149.369 534.11 149.511 534.479 149.795C534.851 150.08 535.115 150.455 535.272 150.92ZM536.905 156V149.455H537.911V156H536.905ZM537.416 148.364C537.22 148.364 537.051 148.297 536.909 148.163C536.77 148.03 536.7 147.869 536.7 147.682C536.7 147.494 536.77 147.334 536.909 147.2C537.051 147.067 537.22 147 537.416 147C537.612 147 537.78 147.067 537.919 147.2C538.061 147.334 538.132 147.494 538.132 147.682C538.132 147.869 538.061 148.03 537.919 148.163C537.78 148.297 537.612 148.364 537.416 148.364ZM542.599 149.455V150.307H539.207V149.455H542.599ZM540.196 147.886H541.201V154.125C541.201 154.409 541.243 154.622 541.325 154.764C541.41 154.903 541.518 154.997 541.649 155.045C541.782 155.091 541.923 155.114 542.071 155.114C542.181 155.114 542.272 155.108 542.343 155.097C542.414 155.082 542.471 155.071 542.514 155.062L542.718 155.966C542.65 155.991 542.555 156.017 542.433 156.043C542.311 156.071 542.156 156.085 541.968 156.085C541.684 156.085 541.406 156.024 541.133 155.902C540.863 155.78 540.639 155.594 540.46 155.344C540.284 155.094 540.196 154.778 540.196 154.398V147.886ZM546.786 156.136C546.155 156.136 545.611 155.997 545.154 155.719C544.699 155.438 544.348 155.045 544.101 154.543C543.857 154.037 543.735 153.449 543.735 152.778C543.735 152.108 543.857 151.517 544.101 151.006C544.348 150.491 544.692 150.091 545.132 149.804C545.576 149.514 546.093 149.369 546.684 149.369C547.025 149.369 547.361 149.426 547.694 149.54C548.026 149.653 548.328 149.838 548.601 150.094C548.874 150.347 549.091 150.682 549.253 151.099C549.415 151.517 549.496 152.031 549.496 152.642V153.068H544.451V152.199H548.473C548.473 151.83 548.4 151.5 548.252 151.21C548.107 150.92 547.9 150.692 547.63 150.524C547.363 150.357 547.047 150.273 546.684 150.273C546.283 150.273 545.936 150.372 545.644 150.571C545.354 150.767 545.131 151.023 544.975 151.338C544.819 151.653 544.74 151.991 544.74 152.352V152.932C544.74 153.426 544.826 153.845 544.996 154.189C545.169 154.53 545.409 154.79 545.716 154.969C546.023 155.145 546.38 155.233 546.786 155.233C547.05 155.233 547.289 155.196 547.502 155.122C547.718 155.045 547.904 154.932 548.06 154.781C548.216 154.628 548.337 154.437 548.422 154.21L549.394 154.483C549.292 154.812 549.12 155.102 548.878 155.352C548.637 155.599 548.338 155.793 547.983 155.932C547.628 156.068 547.229 156.136 546.786 156.136ZM552.355 147.273L552.27 153.545H551.282L551.196 147.273H552.355ZM551.776 156.068C551.566 156.068 551.385 155.993 551.235 155.842C551.084 155.692 551.009 155.511 551.009 155.301C551.009 155.091 551.084 154.911 551.235 154.76C551.385 154.609 551.566 154.534 551.776 154.534C551.986 154.534 552.167 154.609 552.317 154.76C552.468 154.911 552.543 155.091 552.543 155.301C552.543 155.44 552.507 155.568 552.436 155.685C552.368 155.801 552.276 155.895 552.159 155.966C552.046 156.034 551.918 156.068 551.776 156.068ZM555.252 147.273V148.04C555.252 148.273 555.21 148.521 555.124 148.786C555.042 149.047 554.92 149.301 554.758 149.548C554.599 149.793 554.406 150.006 554.178 150.188L553.633 149.744C553.812 149.489 553.967 149.223 554.097 148.947C554.231 148.669 554.298 148.372 554.298 148.057V147.273H555.252ZM557.434 147.273V148.04C557.434 148.273 557.391 148.521 557.306 148.786C557.224 149.047 557.102 149.301 556.94 149.548C556.781 149.793 556.587 150.006 556.36 150.188L555.815 149.744C555.994 149.489 556.148 149.223 556.279 148.947C556.413 148.669 556.479 148.372 556.479 148.057V147.273H557.434ZM561.084 152.318C561.084 153.392 560.943 154.381 560.662 155.284C560.384 156.185 559.984 157.014 559.464 157.773H558.578C558.783 157.491 558.973 157.145 559.149 156.733C559.328 156.324 559.484 155.875 559.618 155.386C559.751 154.895 559.855 154.388 559.929 153.865C560.006 153.339 560.044 152.824 560.044 152.318C560.044 151.642 559.979 150.956 559.848 150.26C559.717 149.564 559.541 148.918 559.32 148.321C559.098 147.724 558.851 147.239 558.578 146.864H559.464C559.984 147.622 560.384 148.453 560.662 149.357C560.943 150.257 561.084 151.244 561.084 152.318ZM564.784 154.807L564.716 155.267C564.667 155.591 564.593 155.938 564.494 156.307C564.397 156.676 564.297 157.024 564.191 157.351C564.086 157.678 564 157.938 563.931 158.131H563.164C563.201 157.949 563.25 157.709 563.309 157.411C563.369 157.112 563.429 156.778 563.488 156.409C563.551 156.043 563.602 155.668 563.642 155.284L563.693 154.807H564.784ZM564.17 151.21C563.96 151.21 563.779 151.135 563.629 150.984C563.478 150.834 563.403 150.653 563.403 150.443C563.403 150.233 563.478 150.053 563.629 149.902C563.779 149.751 563.96 149.676 564.17 149.676C564.38 149.676 564.561 149.751 564.711 149.902C564.862 150.053 564.937 150.233 564.937 150.443C564.937 150.582 564.902 150.71 564.831 150.827C564.762 150.943 564.67 151.037 564.554 151.108C564.44 151.176 564.312 151.21 564.17 151.21Z" fill="#005508"/>
<path id="text1" d="M329.58 125.136C328.966 125.136 328.438 124.991 327.994 124.702C327.551 124.412 327.21 124.013 326.972 123.504C326.733 122.996 326.614 122.415 326.614 121.761C326.614 121.097 326.736 120.51 326.98 120.001C327.227 119.49 327.571 119.091 328.011 118.804C328.455 118.514 328.972 118.369 329.562 118.369C330.023 118.369 330.438 118.455 330.807 118.625C331.176 118.795 331.479 119.034 331.714 119.341C331.95 119.648 332.097 120.006 332.153 120.415H331.148C331.071 120.116 330.901 119.852 330.636 119.622C330.375 119.389 330.023 119.273 329.58 119.273C329.188 119.273 328.844 119.375 328.548 119.58C328.256 119.781 328.027 120.067 327.862 120.436C327.7 120.803 327.619 121.233 327.619 121.727C327.619 122.233 327.699 122.673 327.858 123.048C328.02 123.423 328.247 123.714 328.54 123.922C328.835 124.129 329.182 124.233 329.58 124.233C329.841 124.233 330.078 124.188 330.291 124.097C330.504 124.006 330.685 123.875 330.832 123.705C330.98 123.534 331.085 123.33 331.148 123.091H332.153C332.097 123.477 331.956 123.825 331.732 124.135C331.51 124.442 331.216 124.686 330.849 124.868C330.486 125.047 330.063 125.136 329.58 125.136ZM336.283 125.136C335.692 125.136 335.173 124.996 334.727 124.714C334.284 124.433 333.938 124.04 333.688 123.534C333.44 123.028 333.317 122.437 333.317 121.761C333.317 121.08 333.44 120.484 333.688 119.976C333.938 119.467 334.284 119.072 334.727 118.791C335.173 118.51 335.692 118.369 336.283 118.369C336.874 118.369 337.391 118.51 337.834 118.791C338.28 119.072 338.626 119.467 338.874 119.976C339.124 120.484 339.249 121.08 339.249 121.761C339.249 122.437 339.124 123.028 338.874 123.534C338.626 124.04 338.28 124.433 337.834 124.714C337.391 124.996 336.874 125.136 336.283 125.136ZM336.283 124.233C336.732 124.233 337.101 124.118 337.391 123.888C337.68 123.658 337.895 123.355 338.034 122.98C338.173 122.605 338.243 122.199 338.243 121.761C338.243 121.324 338.173 120.916 338.034 120.538C337.895 120.161 337.68 119.855 337.391 119.622C337.101 119.389 336.732 119.273 336.283 119.273C335.834 119.273 335.464 119.389 335.175 119.622C334.885 119.855 334.67 120.161 334.531 120.538C334.392 120.916 334.322 121.324 334.322 121.761C334.322 122.199 334.392 122.605 334.531 122.98C334.67 123.355 334.885 123.658 335.175 123.888C335.464 124.118 335.834 124.233 336.283 124.233ZM341.789 121.062V125H340.784V118.455H341.755V119.477H341.841C341.994 119.145 342.227 118.878 342.539 118.676C342.852 118.472 343.255 118.369 343.75 118.369C344.193 118.369 344.581 118.46 344.913 118.642C345.245 118.821 345.504 119.094 345.689 119.46C345.873 119.824 345.966 120.284 345.966 120.841V125H344.96V120.909C344.96 120.395 344.826 119.994 344.559 119.707C344.292 119.418 343.926 119.273 343.46 119.273C343.139 119.273 342.852 119.342 342.599 119.482C342.349 119.621 342.152 119.824 342.007 120.091C341.862 120.358 341.789 120.682 341.789 121.062ZM352.44 119.92L351.536 120.176C351.479 120.026 351.396 119.879 351.285 119.737C351.177 119.592 351.029 119.473 350.842 119.379C350.654 119.286 350.414 119.239 350.121 119.239C349.721 119.239 349.387 119.331 349.12 119.516C348.856 119.697 348.724 119.929 348.724 120.21C348.724 120.46 348.815 120.658 348.996 120.803C349.178 120.947 349.462 121.068 349.849 121.165L350.82 121.403C351.406 121.545 351.842 121.763 352.129 122.055C352.415 122.345 352.559 122.719 352.559 123.176C352.559 123.551 352.451 123.886 352.235 124.182C352.022 124.477 351.724 124.71 351.34 124.881C350.957 125.051 350.511 125.136 350.002 125.136C349.335 125.136 348.782 124.991 348.344 124.702C347.907 124.412 347.63 123.989 347.513 123.432L348.468 123.193C348.559 123.545 348.731 123.81 348.984 123.986C349.239 124.162 349.573 124.25 349.985 124.25C350.454 124.25 350.826 124.151 351.102 123.952C351.38 123.75 351.519 123.509 351.519 123.227C351.519 123 351.44 122.81 351.281 122.656C351.121 122.5 350.877 122.384 350.548 122.307L349.457 122.051C348.857 121.909 348.417 121.689 348.136 121.391C347.857 121.089 347.718 120.713 347.718 120.261C347.718 119.892 347.822 119.565 348.029 119.281C348.239 118.997 348.525 118.774 348.886 118.612C349.249 118.45 349.661 118.369 350.121 118.369C350.769 118.369 351.278 118.511 351.647 118.795C352.019 119.08 352.283 119.455 352.44 119.92ZM356.919 118.455V119.307H353.527V118.455H356.919ZM354.516 116.886H355.522V123.125C355.522 123.409 355.563 123.622 355.645 123.764C355.73 123.903 355.838 123.997 355.969 124.045C356.103 124.091 356.243 124.114 356.391 124.114C356.502 124.114 356.593 124.108 356.664 124.097C356.735 124.082 356.792 124.071 356.834 124.062L357.039 124.966C356.971 124.991 356.875 125.017 356.753 125.043C356.631 125.071 356.476 125.085 356.289 125.085C356.005 125.085 355.726 125.024 355.453 124.902C355.184 124.78 354.959 124.594 354.78 124.344C354.604 124.094 354.516 123.778 354.516 123.398V116.886ZM363.29 125L361.296 118.455H362.353L363.767 123.466H363.836L365.233 118.455H366.307L367.688 123.449H367.756L369.171 118.455H370.228L368.233 125H367.245L365.813 119.972H365.711L364.279 125H363.29ZM374.079 125.136C373.448 125.136 372.904 124.997 372.447 124.719C371.992 124.438 371.641 124.045 371.394 123.543C371.15 123.037 371.028 122.449 371.028 121.778C371.028 121.108 371.15 120.517 371.394 120.006C371.641 119.491 371.985 119.091 372.425 118.804C372.869 118.514 373.386 118.369 373.977 118.369C374.317 118.369 374.654 118.426 374.987 118.54C375.319 118.653 375.621 118.838 375.894 119.094C376.167 119.347 376.384 119.682 376.546 120.099C376.708 120.517 376.789 121.031 376.789 121.642V122.068H371.744V121.199H375.766C375.766 120.83 375.692 120.5 375.545 120.21C375.4 119.92 375.192 119.692 374.923 119.524C374.656 119.357 374.34 119.273 373.977 119.273C373.576 119.273 373.229 119.372 372.937 119.571C372.647 119.767 372.424 120.023 372.268 120.338C372.112 120.653 372.033 120.991 372.033 121.352V121.932C372.033 122.426 372.119 122.845 372.289 123.189C372.462 123.53 372.702 123.79 373.009 123.969C373.316 124.145 373.673 124.233 374.079 124.233C374.343 124.233 374.582 124.196 374.795 124.122C375.011 124.045 375.197 123.932 375.353 123.781C375.509 123.628 375.63 123.437 375.715 123.21L376.687 123.483C376.585 123.812 376.413 124.102 376.171 124.352C375.93 124.599 375.631 124.793 375.276 124.932C374.921 125.068 374.522 125.136 374.079 125.136ZM379.325 116.273V125H378.319V116.273H379.325ZM383.826 125.136C383.212 125.136 382.684 124.991 382.24 124.702C381.797 124.412 381.456 124.013 381.218 123.504C380.979 122.996 380.86 122.415 380.86 121.761C380.86 121.097 380.982 120.51 381.226 120.001C381.473 119.49 381.817 119.091 382.257 118.804C382.701 118.514 383.218 118.369 383.809 118.369C384.269 118.369 384.684 118.455 385.053 118.625C385.422 118.795 385.725 119.034 385.961 119.341C386.196 119.648 386.343 120.006 386.4 120.415H385.394C385.317 120.116 385.147 119.852 384.882 119.622C384.621 119.389 384.269 119.273 383.826 119.273C383.434 119.273 383.09 119.375 382.794 119.58C382.502 119.781 382.273 120.067 382.108 120.436C381.946 120.803 381.865 121.233 381.865 121.727C381.865 122.233 381.945 122.673 382.104 123.048C382.266 123.423 382.493 123.714 382.786 123.922C383.081 124.129 383.428 124.233 383.826 124.233C384.087 124.233 384.324 124.188 384.537 124.097C384.75 124.006 384.931 123.875 385.078 123.705C385.226 123.534 385.331 123.33 385.394 123.091H386.4C386.343 123.477 386.202 123.825 385.978 124.135C385.756 124.442 385.462 124.686 385.096 124.868C384.732 125.047 384.309 125.136 383.826 125.136ZM390.529 125.136C389.938 125.136 389.419 124.996 388.973 124.714C388.53 124.433 388.184 124.04 387.934 123.534C387.686 123.028 387.563 122.437 387.563 121.761C387.563 121.08 387.686 120.484 387.934 119.976C388.184 119.467 388.53 119.072 388.973 118.791C389.419 118.51 389.938 118.369 390.529 118.369C391.12 118.369 391.637 118.51 392.08 118.791C392.526 119.072 392.873 119.467 393.12 119.976C393.37 120.484 393.495 121.08 393.495 121.761C393.495 122.437 393.37 123.028 393.12 123.534C392.873 124.04 392.526 124.433 392.08 124.714C391.637 124.996 391.12 125.136 390.529 125.136ZM390.529 124.233C390.978 124.233 391.347 124.118 391.637 123.888C391.926 123.658 392.141 123.355 392.28 122.98C392.419 122.605 392.489 122.199 392.489 121.761C392.489 121.324 392.419 120.916 392.28 120.538C392.141 120.161 391.926 119.855 391.637 119.622C391.347 119.389 390.978 119.273 390.529 119.273C390.08 119.273 389.711 119.389 389.421 119.622C389.131 119.855 388.917 120.161 388.777 120.538C388.638 120.916 388.569 121.324 388.569 121.761C388.569 122.199 388.638 122.605 388.777 122.98C388.917 123.355 389.131 123.658 389.421 123.888C389.711 124.118 390.08 124.233 390.529 124.233ZM395.03 125V118.455H396.001V119.477H396.087C396.223 119.128 396.443 118.857 396.747 118.663C397.051 118.467 397.416 118.369 397.842 118.369C398.274 118.369 398.634 118.467 398.92 118.663C399.21 118.857 399.436 119.128 399.598 119.477H399.666C399.834 119.139 400.085 118.871 400.42 118.672C400.756 118.47 401.158 118.369 401.626 118.369C402.212 118.369 402.69 118.553 403.062 118.919C403.435 119.283 403.621 119.849 403.621 120.619V125H402.615V120.619C402.615 120.136 402.483 119.791 402.219 119.584C401.955 119.376 401.643 119.273 401.286 119.273C400.825 119.273 400.469 119.412 400.216 119.69C399.963 119.966 399.837 120.315 399.837 120.739V125H398.814V120.517C398.814 120.145 398.693 119.845 398.452 119.618C398.21 119.388 397.899 119.273 397.518 119.273C397.257 119.273 397.013 119.342 396.786 119.482C396.561 119.621 396.379 119.814 396.24 120.061C396.104 120.305 396.036 120.588 396.036 120.909V125H395.03ZM408.204 125.136C407.573 125.136 407.029 124.997 406.572 124.719C406.117 124.438 405.766 124.045 405.519 123.543C405.275 123.037 405.153 122.449 405.153 121.778C405.153 121.108 405.275 120.517 405.519 120.006C405.766 119.491 406.11 119.091 406.55 118.804C406.994 118.514 407.511 118.369 408.102 118.369C408.442 118.369 408.779 118.426 409.112 118.54C409.444 118.653 409.746 118.838 410.019 119.094C410.292 119.347 410.509 119.682 410.671 120.099C410.833 120.517 410.914 121.031 410.914 121.642V122.068H405.869V121.199H409.891C409.891 120.83 409.817 120.5 409.67 120.21C409.525 119.92 409.317 119.692 409.048 119.524C408.781 119.357 408.465 119.273 408.102 119.273C407.701 119.273 407.354 119.372 407.062 119.571C406.772 119.767 406.549 120.023 406.393 120.338C406.237 120.653 406.158 120.991 406.158 121.352V121.932C406.158 122.426 406.244 122.845 406.414 123.189C406.587 123.53 406.827 123.79 407.134 123.969C407.441 124.145 407.798 124.233 408.204 124.233C408.468 124.233 408.707 124.196 408.92 124.122C409.136 124.045 409.322 123.932 409.478 123.781C409.634 123.628 409.755 123.437 409.84 123.21L410.812 123.483C410.71 123.812 410.538 124.102 410.296 124.352C410.055 124.599 409.756 124.793 409.401 124.932C409.046 125.068 408.647 125.136 408.204 125.136ZM416.228 120.79V119.869H421.478V120.79H416.228ZM416.228 123.312V122.392H421.478V123.312H416.228ZM427.462 121.318C427.462 120.244 427.601 119.257 427.88 118.357C428.161 117.453 428.561 116.622 429.081 115.864H429.968C429.763 116.145 429.571 116.491 429.392 116.903C429.216 117.312 429.061 117.763 428.928 118.254C428.794 118.743 428.689 119.249 428.613 119.771C428.539 120.294 428.502 120.81 428.502 121.318C428.502 121.994 428.567 122.68 428.698 123.376C428.828 124.072 429.005 124.719 429.226 125.315C429.448 125.912 429.695 126.398 429.968 126.773H429.081C428.561 126.014 428.161 125.185 427.88 124.284C427.601 123.381 427.462 122.392 427.462 121.318ZM436.974 121.318C436.974 122.392 436.834 123.381 436.553 124.284C436.274 125.185 435.875 126.014 435.355 126.773H434.469C434.673 126.491 434.864 126.145 435.04 125.733C435.219 125.324 435.375 124.875 435.509 124.386C435.642 123.895 435.746 123.388 435.82 122.865C435.896 122.339 435.935 121.824 435.935 121.318C435.935 120.642 435.869 119.956 435.739 119.26C435.608 118.564 435.432 117.918 435.21 117.321C434.989 116.724 434.741 116.239 434.469 115.864H435.355C435.875 116.622 436.274 117.453 436.553 118.357C436.834 119.257 436.974 120.244 436.974 121.318ZM448.081 125L447.424 124.352L450.595 121.182L447.424 118.02L448.081 117.364L451.899 121.182L448.081 125ZM443.129 122.665V121.727H450.723L449.785 122.665H443.129ZM443.129 120.636V119.699H449.785L450.723 120.636H443.129ZM456.896 121.335V120.807C457.371 120.807 457.702 120.707 457.889 120.509C458.08 120.31 458.175 119.977 458.175 119.511V118.148C458.175 117.756 458.212 117.416 458.286 117.129C458.362 116.842 458.486 116.605 458.656 116.418C458.827 116.23 459.054 116.091 459.338 116C459.622 115.909 459.973 115.864 460.391 115.864V116.699C460.061 116.699 459.801 116.75 459.611 116.852C459.423 116.955 459.29 117.114 459.21 117.33C459.134 117.543 459.095 117.815 459.095 118.148V119.852C459.095 120.074 459.065 120.276 459.006 120.457C458.949 120.639 458.842 120.795 458.686 120.926C458.53 121.057 458.307 121.158 458.017 121.229C457.73 121.3 457.357 121.335 456.896 121.335ZM460.391 126.773C459.973 126.773 459.622 126.727 459.338 126.636C459.054 126.545 458.827 126.406 458.656 126.219C458.486 126.031 458.362 125.794 458.286 125.507C458.212 125.22 458.175 124.881 458.175 124.489V123.125C458.175 122.659 458.08 122.327 457.889 122.128C457.702 121.929 457.371 121.83 456.896 121.83V121.301C457.357 121.301 457.73 121.337 458.017 121.408C458.307 121.479 458.53 121.58 458.686 121.71C458.842 121.841 458.949 121.997 459.006 122.179C459.065 122.361 459.095 122.562 459.095 122.784V124.489C459.095 124.821 459.134 125.094 459.21 125.307C459.29 125.52 459.423 125.678 459.611 125.78C459.801 125.885 460.061 125.938 460.391 125.938V126.773ZM456.896 121.83V120.807H457.902V121.83H456.896Z" fill="#005508"/>
<path id="text3" d="M329.903 184.301V184.83C329.429 184.83 329.097 184.929 328.906 185.128C328.719 185.327 328.625 185.659 328.625 186.125V187.489C328.625 187.881 328.587 188.22 328.51 188.507C328.436 188.794 328.314 189.031 328.143 189.219C327.973 189.406 327.746 189.545 327.462 189.636C327.178 189.727 326.827 189.773 326.409 189.773V188.938C326.739 188.938 326.997 188.885 327.185 188.78C327.375 188.678 327.509 188.52 327.585 188.307C327.665 188.094 327.705 187.821 327.705 187.489V185.784C327.705 185.562 327.733 185.361 327.79 185.179C327.849 184.997 327.957 184.841 328.114 184.71C328.27 184.58 328.491 184.479 328.778 184.408C329.068 184.337 329.443 184.301 329.903 184.301ZM326.409 178.864C326.827 178.864 327.178 178.909 327.462 179C327.746 179.091 327.973 179.23 328.143 179.418C328.314 179.605 328.436 179.842 328.51 180.129C328.587 180.416 328.625 180.756 328.625 181.148V182.511C328.625 182.977 328.719 183.31 328.906 183.509C329.097 183.707 329.429 183.807 329.903 183.807V184.335C329.443 184.335 329.068 184.3 328.778 184.229C328.491 184.158 328.27 184.057 328.114 183.926C327.957 183.795 327.849 183.639 327.79 183.457C327.733 183.276 327.705 183.074 327.705 182.852V181.148C327.705 180.815 327.665 180.543 327.585 180.33C327.509 180.114 327.375 179.955 327.185 179.852C326.997 179.75 326.739 179.699 326.409 179.699V178.864ZM329.903 183.807V184.83H328.898V183.807H329.903Z" fill="#005508"/>
<path id="text4" d="M328.403 219L326.409 212.455H327.466L328.881 217.466H328.949L330.347 212.455H331.42L332.801 217.449H332.869L334.284 212.455H335.341L333.347 219H332.358L330.926 213.972H330.824L329.392 219H328.403ZM339.192 219.136C338.561 219.136 338.017 218.997 337.56 218.719C337.105 218.438 336.755 218.045 336.507 217.543C336.263 217.037 336.141 216.449 336.141 215.778C336.141 215.108 336.263 214.517 336.507 214.006C336.755 213.491 337.098 213.091 337.539 212.804C337.982 212.514 338.499 212.369 339.09 212.369C339.431 212.369 339.767 212.426 340.1 212.54C340.432 212.653 340.735 212.838 341.007 213.094C341.28 213.347 341.498 213.682 341.659 214.099C341.821 214.517 341.902 215.031 341.902 215.642V216.068H336.857V215.199H340.88C340.88 214.83 340.806 214.5 340.658 214.21C340.513 213.92 340.306 213.692 340.036 213.524C339.769 213.357 339.453 213.273 339.09 213.273C338.689 213.273 338.343 213.372 338.05 213.571C337.76 213.767 337.537 214.023 337.381 214.338C337.225 214.653 337.147 214.991 337.147 215.352V215.932C337.147 216.426 337.232 216.845 337.402 217.189C337.576 217.53 337.816 217.79 338.123 217.969C338.429 218.145 338.786 218.233 339.192 218.233C339.456 218.233 339.695 218.196 339.908 218.122C340.124 218.045 340.31 217.932 340.466 217.781C340.623 217.628 340.743 217.437 340.828 217.21L341.8 217.483C341.698 217.812 341.526 218.102 341.284 218.352C341.043 218.599 340.745 218.793 340.39 218.932C340.034 219.068 339.635 219.136 339.192 219.136ZM344.438 210.273V219H343.432V210.273H344.438ZM348.939 219.136C348.325 219.136 347.797 218.991 347.354 218.702C346.911 218.412 346.57 218.013 346.331 217.504C346.092 216.996 345.973 216.415 345.973 215.761C345.973 215.097 346.095 214.51 346.339 214.001C346.587 213.49 346.93 213.091 347.371 212.804C347.814 212.514 348.331 212.369 348.922 212.369C349.382 212.369 349.797 212.455 350.166 212.625C350.536 212.795 350.838 213.034 351.074 213.341C351.31 213.648 351.456 214.006 351.513 214.415H350.507C350.43 214.116 350.26 213.852 349.996 213.622C349.734 213.389 349.382 213.273 348.939 213.273C348.547 213.273 348.203 213.375 347.908 213.58C347.615 213.781 347.386 214.067 347.222 214.436C347.06 214.803 346.979 215.233 346.979 215.727C346.979 216.233 347.058 216.673 347.217 217.048C347.379 217.423 347.607 217.714 347.899 217.922C348.195 218.129 348.541 218.233 348.939 218.233C349.2 218.233 349.438 218.188 349.651 218.097C349.864 218.006 350.044 217.875 350.192 217.705C350.339 217.534 350.445 217.33 350.507 217.091H351.513C351.456 217.477 351.315 217.825 351.091 218.135C350.869 218.442 350.575 218.686 350.209 218.868C349.845 219.047 349.422 219.136 348.939 219.136ZM355.642 219.136C355.051 219.136 354.533 218.996 354.087 218.714C353.643 218.433 353.297 218.04 353.047 217.534C352.8 217.028 352.676 216.437 352.676 215.761C352.676 215.08 352.8 214.484 353.047 213.976C353.297 213.467 353.643 213.072 354.087 212.791C354.533 212.51 355.051 212.369 355.642 212.369C356.233 212.369 356.75 212.51 357.193 212.791C357.639 213.072 357.986 213.467 358.233 213.976C358.483 214.484 358.608 215.08 358.608 215.761C358.608 216.437 358.483 217.028 358.233 217.534C357.986 218.04 357.639 218.433 357.193 218.714C356.75 218.996 356.233 219.136 355.642 219.136ZM355.642 218.233C356.091 218.233 356.46 218.118 356.75 217.888C357.04 217.658 357.254 217.355 357.393 216.98C357.533 216.605 357.602 216.199 357.602 215.761C357.602 215.324 357.533 214.916 357.393 214.538C357.254 214.161 357.04 213.855 356.75 213.622C356.46 213.389 356.091 213.273 355.642 213.273C355.193 213.273 354.824 213.389 354.534 213.622C354.244 213.855 354.03 214.161 353.891 214.538C353.751 214.916 353.682 215.324 353.682 215.761C353.682 216.199 353.751 216.605 353.891 216.98C354.03 217.355 354.244 217.658 354.534 217.888C354.824 218.118 355.193 218.233 355.642 218.233ZM360.143 219V212.455H361.115V213.477H361.2C361.336 213.128 361.556 212.857 361.86 212.663C362.164 212.467 362.529 212.369 362.956 212.369C363.387 212.369 363.747 212.467 364.034 212.663C364.324 212.857 364.549 213.128 364.711 213.477H364.779C364.947 213.139 365.199 212.871 365.534 212.672C365.869 212.47 366.271 212.369 366.74 212.369C367.325 212.369 367.804 212.553 368.176 212.919C368.548 213.283 368.734 213.849 368.734 214.619V219H367.728V214.619C367.728 214.136 367.596 213.791 367.332 213.584C367.068 213.376 366.757 213.273 366.399 213.273C365.939 213.273 365.582 213.412 365.329 213.69C365.076 213.966 364.95 214.315 364.95 214.739V219H363.927V214.517C363.927 214.145 363.806 213.845 363.565 213.618C363.324 213.388 363.012 213.273 362.632 213.273C362.37 213.273 362.126 213.342 361.899 213.482C361.674 213.621 361.493 213.814 361.353 214.061C361.217 214.305 361.149 214.588 361.149 214.909V219H360.143ZM373.317 219.136C372.686 219.136 372.142 218.997 371.685 218.719C371.23 218.438 370.88 218.045 370.632 217.543C370.388 217.037 370.266 216.449 370.266 215.778C370.266 215.108 370.388 214.517 370.632 214.006C370.88 213.491 371.223 213.091 371.664 212.804C372.107 212.514 372.624 212.369 373.215 212.369C373.556 212.369 373.892 212.426 374.225 212.54C374.557 212.653 374.86 212.838 375.132 213.094C375.405 213.347 375.623 213.682 375.784 214.099C375.946 214.517 376.027 215.031 376.027 215.642V216.068H370.982V215.199H375.005C375.005 214.83 374.931 214.5 374.783 214.21C374.638 213.92 374.431 213.692 374.161 213.524C373.894 213.357 373.578 213.273 373.215 213.273C372.814 213.273 372.468 213.372 372.175 213.571C371.885 213.767 371.662 214.023 371.506 214.338C371.35 214.653 371.272 214.991 371.272 215.352V215.932C371.272 216.426 371.357 216.845 371.527 217.189C371.701 217.53 371.941 217.79 372.248 217.969C372.554 218.145 372.911 218.233 373.317 218.233C373.581 218.233 373.82 218.196 374.033 218.122C374.249 218.045 374.435 217.932 374.591 217.781C374.748 217.628 374.868 217.437 374.953 217.21L375.925 217.483C375.823 217.812 375.651 218.102 375.409 218.352C375.168 218.599 374.87 218.793 374.515 218.932C374.159 219.068 373.76 219.136 373.317 219.136ZM381.29 215.318C381.29 214.244 381.429 213.257 381.708 212.357C381.989 211.453 382.39 210.622 382.909 209.864H383.796C383.591 210.145 383.4 210.491 383.221 210.903C383.044 211.312 382.89 211.763 382.756 212.254C382.623 212.743 382.517 213.249 382.441 213.771C382.367 214.294 382.33 214.81 382.33 215.318C382.33 215.994 382.395 216.68 382.526 217.376C382.657 218.072 382.833 218.719 383.054 219.315C383.276 219.912 383.523 220.398 383.796 220.773H382.909C382.39 220.014 381.989 219.185 381.708 218.284C381.429 217.381 381.29 216.392 381.29 215.318ZM390.803 215.318C390.803 216.392 390.662 217.381 390.381 218.284C390.102 219.185 389.703 220.014 389.183 220.773H388.297C388.501 220.491 388.692 220.145 388.868 219.733C389.047 219.324 389.203 218.875 389.337 218.386C389.47 217.895 389.574 217.388 389.648 216.865C389.724 216.339 389.763 215.824 389.763 215.318C389.763 214.642 389.697 213.956 389.567 213.26C389.436 212.564 389.26 211.918 389.038 211.321C388.817 210.724 388.57 210.239 388.297 209.864H389.183C389.703 210.622 390.102 211.453 390.381 212.357C390.662 213.257 390.803 214.244 390.803 215.318ZM394.502 217.807L394.434 218.267C394.386 218.591 394.312 218.938 394.213 219.307C394.116 219.676 394.015 220.024 393.91 220.351C393.805 220.678 393.718 220.938 393.65 221.131H392.883C392.92 220.949 392.968 220.709 393.028 220.411C393.088 220.112 393.147 219.778 393.207 219.409C393.27 219.043 393.321 218.668 393.36 218.284L393.412 217.807H394.502ZM393.889 214.21C393.679 214.21 393.498 214.135 393.348 213.984C393.197 213.834 393.122 213.653 393.122 213.443C393.122 213.233 393.197 213.053 393.348 212.902C393.498 212.751 393.679 212.676 393.889 212.676C394.099 212.676 394.279 212.751 394.43 212.902C394.581 213.053 394.656 213.233 394.656 213.443C394.656 213.582 394.62 213.71 394.549 213.827C394.481 213.943 394.389 214.037 394.272 214.108C394.159 214.176 394.031 214.21 393.889 214.21Z" fill="#005508"/>
</g>
</g>
<defs>
<clipPath id="clip0_1_54">
<rect width="711.188" height="669.683" fill="white"/>
</clipPath>
</defs>
</svg>
